<svg height="512" viewBox="0 0 512 512" width="512" xmlns="http://www.w3.org/2000/svg"><g id="Flat"><rect fill="#dfdfdd" height="304" rx="24" width="408" x="56" y="168"/><path d="m96 168h328v304h-328z" fill="#348ed8"/><g fill="#2d7dbe"><path d="m224 240h-32v-32h-32v32h-32v32h32v32h32v-32h32z"/><path d="m248 216h16v224h-16z"/><path d="m120 328h16v16h-16z"/><path d="m152 328h80v16h-80z"/><path d="m152 360h80v16h-80z"/><path d="m120 392h16v16h-16z"/><path d="m152 392h80v16h-80z"/><path d="m152 424h80v16h-80z"/><path d="m280 232h16v16h-16z"/><path d="m312 232h88v16h-88z"/><path d="m312 264h88v16h-88z"/><path d="m280 296h16v16h-16z"/><path d="m312 296h32v16h-32z"/><path d="m312 328h24v16h-24z"/><path d="m280 360h16v16h-16z"/><path d="m312 360h24v16h-24z"/></g><path d="m103.029 384a16.975 16.975 0 0 0 -12 4.97l-35.029 35.03v-80l-22.627 22.627a32 32 0 0 0 -9.373 22.628v106.745h64v-8a43.266 43.266 0 0 0 0-48l27.029-27.03a16.967 16.967 0 0 0 4.971-12 16.971 16.971 0 0 0 -16.971-16.97z" fill="#fdc8a2"/><path d="m472 392a16 16 0 0 0 -16 16 16 16 0 0 0 -32 0 16 16 0 0 0 -32 0v-64a16 16 0 0 0 -32 0v88l-19.029-19.03a16.975 16.975 0 0 0 -12-4.97 16.971 16.971 0 0 0 -16.971 16.97v.752a16.966 16.966 0 0 0 4.086 11.044l43.914 51.234h128v-80a16 16 0 0 0 -16-16z" fill="#fdc8a2"/><path d="m456 200h-56l-48 40v-40h-72a32 32 0 0 1 -32-32v-112a32 32 0 0 1 32-32h176a32 32 0 0 1 32 32v112a32 32 0 0 1 -32 32z" fill="#85ccd5"/><path d="m448 152v-64h-16v64h-16v-80h-16v80h-16v-48h-16v48h-16v-56h-16v56h-16v-32h-16v32h-16v-80h-16v88a8 8 0 0 0 8 8h184v-16z" fill="#78b9c1"/></g></svg>