<svg id="Capa_1" enable-background="new 0 0 512 512" height="512" viewBox="0 0 512 512" width="512" xmlns="http://www.w3.org/2000/svg"><g><path d="m0 256c0-141.263 114.418-255.803 255.636-256 140.661-.196 255.755 114.21 256.362 254.87.353 81.879-37.734 154.876-97.252 201.98-4.609 3.648-11.059 3.937-15.935.654-40.794-27.471-89.93-43.504-142.811-43.504-52.654 0-101.594 15.896-142.285 43.151-5.199 3.482-12.063 3.199-16.959-.696-58.959-46.9-96.756-119.263-96.756-200.455z" fill="#754ca0"/><path d="m465 256c0 115.427-93.573 209-209 209s-209-93.573-209-209 93.573-209 209-209 209 93.573 209 209z" fill="#865cb2"/><path d="m420 310c0 4.142-3.358 7.5-7.5 7.5h-5v5c0 4.142-3.358 7.5-7.5 7.5s-7.5-3.358-7.5-7.5v-5h-5c-4.142 0-7.5-3.358-7.5-7.5 0-4.142 3.358-7.5 7.5-7.5h5v-5c0-4.142 3.358-7.5 7.5-7.5s7.5 3.358 7.5 7.5v5h5c4.142 0 7.5 3.358 7.5 7.5z" fill="#a6e0ec"/><path d="m477.5 217.5c0 4.142-3.358 7.5-7.5 7.5h-5v5c0 4.142-3.358 7.5-7.5 7.5s-7.5-3.358-7.5-7.5v-5h-5c-4.142 0-7.5-3.358-7.5-7.5 0-4.142 3.358-7.5 7.5-7.5h5v-5c0-4.142 3.358-7.5 7.5-7.5s7.5 3.358 7.5 7.5v5h5c4.142 0 7.5 3.358 7.5 7.5z" fill="#fff5f5"/><path d="m380 205.333h-120c-27.614 0-50-22.386-50-50v-52.833h120c27.614 0 50 22.386 50 50z" fill="#fff68e"/><path d="m133.499 152.5c0-27.614 22.386-50 50-50h56.501v60.834c0 27.614-22.386 50-50 50h-56.501z" fill="#ffcd71"/><path d="m129.013 478.334c-1.009-.577-2.013-1.161-3.013-1.752-10.505-6.204-20.528-13.138-30-20.73v-45.852c0-38.66 31.34-70 70-70h47.5c-38.66 0-70 31.34-70 70v45.852c.411.329 0 9.648 0 14.148 0 7.434-8.035 12.027-14.487 8.334z" fill="#def4f8"/><path d="m416 410v45.852c-43.827 35.133-99.459 56.148-160 56.148-47.457 0-91.897-12.913-130-35.417v-66.583c0-36.244 27.545-66.054 62.843-69.639 2.353-.239 63.741 26.639 66.157 26.639l73.167-27h17.833c38.66 0 70 31.34 70 70z" fill="#fff5f5"/><path d="m180 340h152v160.53c-24.011 7.455-49.537 11.47-76 11.47s-51.989-4.015-76-11.47z" fill="#7cd2e3"/><path d="m248.929 410.711-70.711-70.711h17.782l7.114 3.118c35.318 15.478 75.632 14.777 110.39-1.919l2.496-1.199h17.782l-70.711 70.711c-3.905 3.905-10.237 3.905-14.142 0z" fill="#a6e0ec"/><g fill="#faa68e"><path d="m146 250c-13.807 0-25-11.193-25-25v-10c0-13.807 11.193-25 25-25 13.807 0 25 11.193 25 25v10c0 13.807-11.193 25-25 25z"/><path d="m316 340-56.464 56.464c-1.953 1.953-5.118 1.953-7.071 0l-56.465-56.464h30v-39.376c0-16.347 12.817-30.164 29.157-30.612 16.954-.465 30.843 13.139 30.843 29.988v40z"/><path d="m391 215v10c0 13.807-11.193 25-25 25-2.468 0-4.853-.358-7.105-1.024-15.733 41.513-55.868 71.024-102.895 71.024-60.751 0-110-49.249-110-110v-40c0-60.751 49.249-110 110-110 60.751 0 110 49.249 110 110v20c13.807 0 25 11.193 25 25z"/></g><path d="m366 170v40c0 50.792-34.425 93.543-81.216 106.195-9.023 2.44-18.545 2.44-27.568 0-46.791-12.652-81.216-55.403-81.216-106.195v-40c0-55.663 41.345-101.669 95-108.985 53.655 7.316 95 53.322 95 108.985z" fill="#ffbeaa"/><path d="m223.5 177.5c0 8.284-6.716 15-15 15s-15-6.716-15-15 6.716-15 15-15 15 6.716 15 15zm80-15c-8.284 0-15 6.716-15 15s6.716 15 15 15 15-6.716 15-15-6.716-15-15-15z" fill="#784132"/><path d="m226 170c0 4.142-3.358 7.5-7.5 7.5s-7.5-3.358-7.5-7.5 3.358-7.5 7.5-7.5 7.5 3.358 7.5 7.5zm87.5-7.5c-4.142 0-7.5 3.358-7.5 7.5s3.358 7.5 7.5 7.5 7.5-3.358 7.5-7.5-3.358-7.5-7.5-7.5z" fill="#fff5f5"/><path d="m380 150h-120c-27.614 0-50-22.386-50-50v-20h120c27.614 0 50 22.386 50 50z" fill="#fff68e"/><path d="m133.499 130c0-27.614 22.386-50 50-50h56.501v20c0 27.614-22.386 50-50 50h-56.501z" fill="#ffcd71"/><path d="m322 85h-132c-5.523 0-10-4.477-10-10v-60c0-8.284 6.716-15 15-15h122c8.284 0 15 6.716 15 15v60c0 5.523-4.477 10-10 10z" fill="#def4f8"/><path d="m322 85h-102c-5.523 0-10-4.477-10-10v-60c0-8.284 6.716-15 15-15h92c8.284 0 15 6.716 15 15v60c0 5.523-4.477 10-10 10z" fill="#fff5f5"/><path d="m342.25 82.5c0 4.142-3.358 7.5-7.5 7.5h-159.5c-4.142 0-7.5-3.358-7.5-7.5 0-4.142 3.358-7.5 7.5-7.5h159.5c4.142 0 7.5 3.358 7.5 7.5z" fill="#def4f8"/><path d="m290 45c0 4.142-3.358 7.5-7.5 7.5h-20v20c0 4.142-3.358 7.5-7.5 7.5s-7.5-3.358-7.5-7.5v-20h-20c-4.142 0-7.5-3.358-7.5-7.5s3.358-7.5 7.5-7.5h20v-20c0-4.142 3.358-7.5 7.5-7.5s7.5 3.358 7.5 7.5v20h20c4.142 0 7.5 3.358 7.5 7.5z" fill="#60c8dd"/><path d="m397.5 440c0 20.678-16.822 37.5-37.5 37.5-4.143 0-7.5-3.358-7.5-7.5s3.357-7.5 7.5-7.5c12.406 0 22.5-10.093 22.5-22.5s-10.094-22.5-22.5-22.5h-60c-12.406 0-22.5 10.093-22.5 22.5s10.094 22.5 22.5 22.5c4.143 0 7.5 3.358 7.5 7.5s-3.357 7.5-7.5 7.5c-20.678 0-37.5-16.822-37.5-37.5s16.822-37.5 37.5-37.5h23.5v-37.5c0-37.22-30.28-67.5-67.5-67.5s-67.5 30.28-67.5 67.5v59.4c0 4.142-3.358 7.5-7.5 7.5s-7.5-3.358-7.5-7.5v-59.4c0-45.491 37.009-82.5 82.5-82.5 45.49 0 82.5 37.009 82.5 82.5v37.5h21.5c20.678 0 37.5 16.822 37.5 37.5z" fill="#ffb655"/><path d="m325 465c0 8.284-6.716 15-15 15s-15-6.716-15-15 6.716-15 15-15 15 6.716 15 15zm-145-55c-16.569 0-30 13.431-30 30s13.431 30 30 30 30-13.431 30-30-13.431-30-30-30zm170 40c-8.284 0-15 6.716-15 15s6.716 15 15 15 15-6.716 15-15-6.716-15-15-15zm-7.625-38.125v-10.792c0-6.489-5.261-11.75-11.75-11.75s-11.75 5.261-11.75 11.75v10.792c0 6.489 5.261 11.75 11.75 11.75s11.75-5.261 11.75-11.75z" fill="#ffcd71"/><path d="m195 440c0 8.284-6.716 15-15 15s-15-6.716-15-15 6.716-15 15-15 15 6.716 15 15z" fill="#ff9f22"/><path d="m357.503 229.061c0 50.983-40.06 92.313-89.476 92.313h-24.052c-49.416 0-89.476-41.33-89.476-92.313 0-7.274 4.84-13.596 11.699-15.281l57.764-14.189c10.496-2.578 21.249-3.881 32.039-3.881s21.542 1.302 32.039 3.881l57.764 14.189c6.859 1.685 11.699 8.008 11.699 15.281z" fill="#fff5f5"/><path d="m279.046 320.681c-3.611.457-7.288.693-11.019.693h-24.052c-49.416 0-89.476-41.33-89.476-92.313 0-7.274 4.84-13.596 11.699-15.281l8.625-2.119c1.221 58.085 46.797 105.26 104.223 109.02z" fill="#dce6eb"/><path d="m173.81 262.713-9.036-69.414c-1.957-15.036-15.783-25.677-30.82-23.72s-25.677 15.784-23.72 30.82l7.1 54.54c1.601 12.302 12.913 21.009 25.216 19.407l24.791-3.227c4.107-.535 7.003-4.298 6.469-8.406zm-33.196-3.242c-4.101.534-7.872-2.368-8.405-6.469l-7.1-54.54c-.89-6.835 3.947-13.119 10.782-14.009s13.119 3.947 14.009 10.782l8.068 61.977z" fill="#dce6eb"/><path d="m379.921 169.579c-15.037-1.958-28.862 8.684-30.82 23.72l-9.036 69.414c-.535 4.108 2.362 7.871 6.469 8.406l24.791 3.227c12.303 1.602 23.615-7.105 25.216-19.407l7.1-54.54c1.958-15.036-8.683-28.862-23.72-30.82zm8.846 28.884-7.1 54.54c-.534 4.101-4.304 7.003-8.406 6.469l-17.354-2.259 8.068-61.977c.89-6.835 7.174-11.671 14.009-10.782 6.836.889 11.672 7.174 10.783 14.009z" fill="#fff5f5"/><path d="m301.399 273.493c-25.457 10.982-65.338 10.982-90.795 0-3.803-1.642-5.556-6.055-3.915-9.857 1.223-2.835 3.987-4.531 6.89-4.531.992 0 2 .198 2.968.615 21.387 9.229 57.523 9.229 78.91 0 3.802-1.638 8.216.111 9.857 3.916 1.641 3.802-.112 8.215-3.915 9.857zm-84.368-30c21.854 9.428 56.089 9.428 77.942 0 3.803-1.642 5.556-6.055 3.915-9.857-1.642-3.805-6.056-5.556-9.857-3.916-17.903 7.725-48.154 7.725-66.058 0-.968-.417-1.976-.615-2.968-.615-2.903 0-5.667 1.696-6.89 4.531-1.641 3.802.112 8.215 3.916 9.857z" fill="#dce6eb"/><path d="m391.002 224.973c0 7.282-3.114 13.836-8.082 18.405l-.072-.212c-4.551-13.375-2.596-28.107 5.285-39.832 1.832 3.476 2.869 7.437 2.869 11.639z" fill="#faa68e"/><path d="m145.998 250c-13.806-.001-24.998-11.194-24.998-25v-10c0-13.806 11.192-24.999 24.998-25-6.071 4.561-9.998 11.822-9.998 20v20c0 8.178 3.927 15.439 9.998 20z" fill="#faa68e"/></g></svg>