<svg id="Capa_1" enable-background="new 0 0 512 512" height="512" viewBox="0 0 512 512" width="512" xmlns="http://www.w3.org/2000/svg"><g><path d="m466.271 511.995h-420.542c-17.37 0-31.45-14.081-31.45-31.45v-449.09c0-17.37 14.081-31.45 31.45-31.45h420.542c17.37 0 31.45 14.081 31.45 31.45v449.089c0 17.37-14.081 31.451-31.45 31.451z" fill="#c5d3dd"/><path d="m497.716 31.455v449.091c0 17.367-14.077 31.455-31.444 31.455h-20.626c17.367 0 31.444-14.087 31.444-31.455v-449.091c0-17.368-14.077-31.455-31.444-31.455h20.626c17.367 0 31.444 14.087 31.444 31.455z" fill="#b6c4cf"/><path d="m257.771 45.306c-24.61-.166-49.243 2.725-73.53 8.73-35.987 8.897-70.656 23.762-100.713 44.985-25.716 18.158-12.917 58.617 18.564 58.617h307.745c31.302 0 44.383-40.312 18.842-58.409-28.41-20.129-60.965-34.572-94.863-43.613-25.05-6.68-50.535-10.138-76.045-10.31z" fill="#8d9ca8"/><g fill="#6e7f89"><path d="m212.703 121.863c-2.901 3.799-4.226 5.533-3.344 8.398.516 1.679 1.788 2.968 3.493 3.537.674.224 1.363.454 10.546.454 3.564 0 8.409-.035 15.026-.118 2.845-.036 5.122-2.371 5.087-5.216-.036-2.823-2.335-5.086-5.15-5.086-.021 0-.044 0-.065.001-4.861.061-10.022.1-14.24.107 2.616-3.492 6.297-8.513 11.326-15.697 2.957-4.225 6.145-9.603 6.144-14.941-.001-9.452-7.691-17.142-17.143-17.142-8.173 0-15.248 5.814-16.821 13.825-.548 2.791 1.27 5.499 4.062 6.048 2.786.548 5.499-1.269 6.048-4.062.627-3.192 3.45-5.509 6.712-5.509 1.986 0 3.903.886 5.195 2.394 3.718 4.34.095 9.576-2.637 13.479-7.426 10.61-11.858 16.411-14.239 19.528z"/><path d="m187.104 84.982c2.269-1.701 2.737-4.918 1.042-7.195-1.698-2.282-4.924-2.759-7.208-1.059-3.359 2.5-6.238 5.813-8.711 9.16-2.497 3.379-4.603 7.048-6.242 10.919-3.03 7.155-5.408 15.077-2.788 22.776 2.558 7.517 9.553 12.791 17.548 12.791 10.313 0 18.703-8.39 18.703-18.703s-8.39-18.703-18.704-18.703c-.779 0-1.542.063-2.296.156 4.033-6.557 8.544-10.057 8.656-10.142zm-6.359 20.288c4.632 0 8.401 3.768 8.401 8.4s-3.769 8.4-8.401 8.4-8.4-3.768-8.4-8.4 3.768-8.4 8.4-8.4z"/><path d="m274.227 88.266c-2.845 0-5.151 2.307-5.151 5.151v35.676c0 2.845 2.306 5.151 5.151 5.151s5.151-2.307 5.151-5.151v-7.608l11.729 11.316c1 .964 2.289 1.444 3.576 1.444 1.349 0 2.697-.527 3.709-1.575 1.975-2.047 1.917-5.309-.131-7.284l-15.379-14.837 14.022-12.889c2.095-1.925 2.232-5.184.307-7.279-1.928-2.095-5.184-2.232-7.279-.306l-10.553 9.7v-6.357c-.001-2.846-2.307-5.152-5.152-5.152z"/><path d="m329.408 98.568c2.543 0 4.994.748 7.09 2.164 2.356 1.592 5.559.972 7.151-1.384 1.594-2.358.973-5.56-1.384-7.152-3.804-2.571-8.25-3.929-12.857-3.929-12.676 0-22.989 10.313-22.989 22.989s10.313 22.989 22.989 22.989c12.099 0 20.55-9.453 20.55-22.989 0-2.845-2.306-5.151-5.151-5.151h-10.672c-2.845 0-5.151 2.306-5.151 5.151s2.306 5.151 5.151 5.151h4.824c-1.217 4.167-4.134 7.535-9.551 7.535-6.995 0-12.686-5.691-12.686-12.687s5.69-12.687 12.686-12.687z"/></g><path d="m409.839 157.635h-20.626c31.3 0 44.377-45.8 18.842-66.354-8.549-6.879-17.46-13.17-26.68-18.883 16.625 7.425 32.527 16.367 47.306 26.834 25.535 18.089 12.458 58.403-18.842 58.403z" fill="#7a8c98"/><g><path d="m286.343 481.07h-60.686c-4.268 0-7.727-3.46-7.727-7.727s3.459-7.727 7.727-7.727h60.686c4.268 0 7.727 3.46 7.727 7.727s-3.459 7.727-7.727 7.727z" fill="#8d9ca8"/></g><g><path d="m286.343 447.527h-60.686c-4.268 0-7.727-3.46-7.727-7.727s3.459-7.727 7.727-7.727h60.686c4.268 0 7.727 3.46 7.727 7.727s-3.459 7.727-7.727 7.727z" fill="#8d9ca8"/></g></g></svg>